<?xml version="1.0" encoding="iso-8859-1"?>
<!-- Generator: Adobe Illustrator 18.1.1, SVG Export Plug-In . SVG Version: 6.00 Build 0)  -->
<svg version="1.1" id="Capa_1" xmlns="http://www.w3.org/2000/svg" xmlns:xlink="http://www.w3.org/1999/xlink" x="0px" y="0px"
	 viewBox="0 0 14.866 14.866" style="enable-background:new 0 0 14.866 14.866;" xml:space="preserve">
<g>
	<g>
		<path style="fill:#030104;" d="M12.102,9c-0.129,0-0.248,0.028-0.356,0.08h-0.361v0.328c-0.074,0.125-0.118,0.271-0.118,0.428
			c0,0.462,0.374,0.836,0.836,0.836c0.461,0,0.836-0.374,0.836-0.836S12.563,9,12.102,9z"/>
		<path style="fill:#030104;" d="M12.032,5.656c-0.163,0-0.316,0.037-0.456,0.103h-0.463V6.18c-0.098,0.161-0.153,0.347-0.153,0.549
			c0,0.593,0.48,1.073,1.072,1.073c0.593,0,1.073-0.48,1.073-1.073C13.105,6.136,12.625,5.656,12.032,5.656z"/>
		<path style="fill:#030104;" d="M14.559,1.895H0.307C0.137,1.895,0,2.032,0,2.202v9.997c0,0.169,0.137,0.307,0.307,0.307h0.747
			v0.466h2.549v-0.466h7.533v0.466h2.548v-0.466h0.875c0.17,0,0.307-0.138,0.307-0.307V2.2C14.866,2.032,14.729,1.895,14.559,1.895z
			 M14.252,11.892h-0.568h-2.548H3.603H1.054h-0.44V2.507h13.639L14.252,11.892L14.252,11.892z"/>
		<polygon style="fill:#030104;" points="9.336,3.745 4.129,3.745 4.121,3.745 1.896,3.745 1.896,10.655 9.336,10.655 		"/>
		<rect x="10.938" y="3.379" style="fill:#030104;" width="2.188" height="1.091"/>
	</g>
</g>
<g>
</g>
<g>
</g>
<g>
</g>
<g>
</g>
<g>
</g>
<g>
</g>
<g>
</g>
<g>
</g>
<g>
</g>
<g>
</g>
<g>
</g>
<g>
</g>
<g>
</g>
<g>
</g>
<g>
</g>
</svg>
